<svg width="279" height="10" viewBox="0 0 279 10" fill="none" xmlns="http://www.w3.org/2000/svg">
<path fill-rule="evenodd" clip-rule="evenodd" d="M199.109 0.933827C199.018 0.972756 195.159 0.960039 190.533 0.905622C185.907 0.85106 180.507 0.815056 178.532 0.825323C173.245 0.852776 171.999 0.834323 171.622 0.722979C171.435 0.667704 171.205 0.65585 171.109 0.6966C170.885 0.791964 167.443 0.825074 160.97 0.79413C158.132 0.780677 155.695 0.799186 155.554 0.83548C155.413 0.871768 153.988 0.920608 152.389 0.943992C150.789 0.967376 149.433 1.04092 149.375 1.10744C149.317 1.17396 148.949 1.17163 148.559 1.10221C147.924 0.989619 147.084 0.963966 145.328 1.00398C144.937 1.01289 144.831 1.09476 144.979 1.27584C145.176 1.51719 145.151 1.51629 144.605 1.26259C144.123 1.03894 143.69 1.00056 142.179 1.04741C141.167 1.07881 139.642 1.08412 138.79 1.05913C137.833 1.0311 137.239 1.07682 137.237 1.17848C137.235 1.2889 136.885 1.30177 136.176 1.21775C135.593 1.1487 134.97 1.09629 134.79 1.1014C134.611 1.10636 133.362 1.10392 132.016 1.09593C130.67 1.08795 129.434 1.11257 129.269 1.15034C128.906 1.23374 127.907 1.26113 123.853 1.29863C122.147 1.31443 120.311 1.34584 119.772 1.36817C117.423 1.46603 114.699 1.52142 112.425 1.51746C111.079 1.51516 109.168 1.57487 108.18 1.65002C106.342 1.78982 102.368 1.87966 100.371 1.8265C99.7582 1.81017 99.1352 1.87959 98.9862 1.98066C98.7658 2.13008 98.7149 2.12859 98.7135 1.97302C98.7121 1.79354 97.9468 1.78717 95.4451 1.94546C93.5663 2.06454 91.7642 2.13874 90.219 2.1609C89.2314 2.17523 87.6152 2.20853 86.6274 2.23511C85.6396 2.26183 83.8765 2.29484 82.7094 2.30859C81.5423 2.32233 80.5872 2.34263 80.587 2.35357C80.5866 2.37501 80.0893 2.42362 78.8329 2.52521C78.4076 2.55964 76.9379 2.60957 75.5669 2.63631C72.8801 2.68858 71.7678 2.72621 71.7671 2.76472C71.7668 2.77814 70.8851 2.80369 69.8077 2.82151C66.6773 2.87345 65.3549 2.92047 63.439 3.04763C62.4505 3.1133 60.8335 3.19197 59.8456 3.22248C58.8577 3.25314 57.4714 3.29594 56.7647 3.31776C56.0583 3.33959 55.3366 3.41862 55.1613 3.49326C54.9554 3.58092 54.6298 3.57409 54.2425 3.47409C53.8503 3.37283 53.4347 3.36497 53.0437 3.45108C52.7144 3.5237 51.6483 3.58302 50.675 3.58286C49.7014 3.5827 48.5368 3.63763 48.0869 3.70474C47.6369 3.77199 46.7545 3.83547 46.126 3.84599C43.4383 3.89051 41.037 4.02127 40.6827 4.14232C40.4436 4.22414 40.2289 4.21841 40.1075 4.12695C39.9816 4.03264 39.5404 4.02447 38.8549 4.10371C38.2724 4.17108 37.0047 4.24387 36.0372 4.26541C35.0694 4.2868 34.1477 4.3379 33.9884 4.37897C33.8294 4.41991 33.0774 4.47039 32.3179 4.49127C30.3817 4.54454 29.182 4.61227 27.6686 4.75377C26.9494 4.82103 26.1047 4.8363 25.7913 4.78767C25.4778 4.73903 25.2204 4.75282 25.2189 4.81845C25.217 4.88393 24.7918 4.93659 24.2732 4.93551C23.7549 4.93428 23.0566 4.97872 22.722 5.03417C22.3871 5.08962 21.3507 5.13546 20.4185 5.13589C19.4866 5.13633 18.5238 5.20683 18.2791 5.29263C18.0344 5.37858 17.5475 5.44707 17.1967 5.44518C15.1579 5.43359 13.4005 5.51383 13.0442 5.63485C12.8199 5.71124 12.1582 5.81075 11.5741 5.85606C10.9897 5.90137 10.5104 5.98254 10.5088 6.03621C10.5069 6.09001 10.0288 6.14071 9.44604 6.14884C7.65272 6.17388 7.07496 6.24979 7.17556 6.44696C7.24588 6.58478 7.15696 6.59253 6.84866 6.47526C6.25701 6.25022 4.48425 6.36696 3.68383 6.68373C3.31534 6.82948 2.77637 6.94446 2.48598 6.93927C1.77173 6.92652 -0.0722259 7.72206 0.369339 7.8525C0.557001 7.90809 0.619592 8.077 0.508206 8.22806C0.284433 8.53149 0.629907 8.90695 0.956137 8.71492C1.06961 8.64823 1.4943 8.51691 1.89972 8.42318C2.54997 8.27283 2.63657 8.28532 2.63222 8.52861C2.62946 8.68366 2.91839 8.84377 3.29186 8.89421C3.85158 8.96986 3.92208 8.93347 3.73823 8.6645C3.61799 8.48872 3.28567 8.25357 2.99946 8.14195C2.54438 7.96414 2.58118 7.95079 3.29382 8.03515C3.74166 8.08808 4.21345 8.13429 4.34264 8.13762C4.47151 8.14109 4.49062 8.24079 4.38536 8.35929C4.27978 8.47778 4.35601 8.57762 4.55471 8.58117C4.75342 8.58472 4.91705 8.52402 4.91844 8.44628C4.91982 8.36868 5.15517 8.34954 5.44175 8.40397C5.728 8.4584 6.09403 8.41357 6.25461 8.30453C6.4925 8.14288 6.54654 8.15056 6.5473 8.34579C6.54755 8.4777 6.80416 8.63854 7.117 8.70322C7.97095 8.87984 10.428 8.87935 10.9325 8.70232C11.2666 8.58514 11.5031 8.60673 11.8951 8.79056C12.3146 8.98714 12.4157 8.99435 12.4187 8.82748C12.4207 8.71386 12.705 8.51233 13.0507 8.37975C13.6617 8.14509 13.671 8.15329 13.3953 8.67611C13.1828 9.07983 13.2294 9.26858 13.5822 9.43407C14.213 9.7297 15.015 9.58556 15.0285 9.17391C15.0362 8.94614 15.1225 8.90187 15.3019 9.03332C15.4546 9.1449 15.8073 9.18811 16.1441 9.13649C16.4629 9.08761 16.8197 9.11966 16.937 9.20769C17.1785 9.38928 19.5934 9.15648 19.5971 8.95125C19.5982 8.88591 19.4671 8.8665 19.3057 8.90797C19.1441 8.94959 18.9285 8.88242 18.826 8.75875C18.6745 8.57571 18.7589 8.56482 19.2827 8.69994C19.6358 8.79116 19.9258 8.82056 19.9268 8.76513C19.9278 8.70985 20.2201 8.7886 20.5764 8.94014C21.1592 9.18808 21.2247 9.19144 21.2286 8.9744C21.231 8.84167 21.4532 8.73693 21.7224 8.74174C21.9916 8.74654 22.5335 8.61352 22.9268 8.44604C23.3905 8.24859 23.5709 8.22117 23.4403 8.3681C23.1532 8.69039 23.51 8.79743 24.0724 8.55783C24.698 8.29163 25.1572 8.30785 25.1521 8.59622C25.1498 8.72326 25.3322 8.80137 25.557 8.76978C25.7821 8.7382 25.9301 8.56254 25.8864 8.37952C25.8163 8.08471 25.8688 8.07077 26.3455 8.25743C26.8321 8.44777 26.87 8.42247 26.738 7.99538C26.6214 7.61701 26.6773 7.55585 27.0179 7.68931C27.2743 7.7896 27.3624 7.99515 27.2388 8.20611C27.0479 8.53201 27.1148 8.55524 28.2055 8.54188C29.384 8.52746 29.8492 8.32406 29.5447 7.95634C29.4542 7.84719 29.5956 7.68251 29.8587 7.59018C30.2551 7.4512 30.3724 7.49896 30.5472 7.87093C30.7076 8.21317 30.9364 8.3226 31.5123 8.33288C32.3208 8.34732 32.8074 8.03851 32.3294 7.81448C32.1581 7.73424 32.3187 7.60564 32.7211 7.50106C33.0959 7.40357 33.3043 7.39256 33.1837 7.47649C33.0551 7.56597 33.2351 7.63411 33.6168 7.64092C33.9757 7.64733 34.3613 7.58856 34.4736 7.51031C34.8881 7.22152 35.2986 7.3892 35.0822 7.75901C34.9138 8.0465 34.9705 8.12455 35.315 8.08021C35.5653 8.04806 35.8185 7.85181 35.8777 7.64423C35.9863 7.26418 36.7932 6.85692 37.1276 7.01361C37.2266 7.05988 37.0556 7.26328 36.7478 7.46527C36.4112 7.68629 36.3328 7.83532 36.5518 7.83922C36.7518 7.8428 36.9165 7.79409 36.9176 7.73093C36.9188 7.66777 37.3712 7.60873 37.9227 7.59975C38.5381 7.58988 38.8453 7.63972 38.7171 7.72891C38.3975 7.95155 39.0673 7.91215 39.5137 7.68185C39.7301 7.57016 40.1015 7.51565 40.3387 7.56074C40.5758 7.60568 40.8556 7.58281 40.9607 7.50969C41.0655 7.43671 41.5042 7.41332 41.9356 7.45793C42.3669 7.50255 42.8202 7.46906 42.9432 7.38342C43.2301 7.18354 45.413 7.21799 45.4094 7.42234C45.4078 7.50723 45.5699 7.53478 45.7696 7.48348C46.0289 7.41676 46.0199 7.35693 45.7384 7.2737C45.1942 7.11282 45.8193 6.96465 47.491 6.85807C48.4351 6.79774 48.924 6.83346 49.2506 6.98651C49.8828 7.28275 50.421 7.26216 50.1677 6.95153C49.9742 6.71389 50 6.7126 50.4801 6.93507C51.0893 7.21733 52.2673 7.17737 53.1581 6.84427C53.9986 6.52996 54.6949 6.48797 54.4471 6.7666C54.3389 6.8884 54.3925 6.99047 54.5661 6.99357C54.74 6.99667 54.8836 6.92628 54.8852 6.83716C54.8871 6.73083 55.281 6.7151 56.0284 6.79118C57.0185 6.89203 57.1693 6.86948 57.1738 6.61962C57.1792 6.31696 58.782 5.68331 59.1142 5.85251C59.2203 5.90664 59.1234 5.97698 58.8983 6.00871C58.6735 6.04059 58.4871 6.18623 58.4845 6.33253C58.4781 6.6928 59.6078 6.5783 60.0233 6.1766L60.3335 5.87675L60.9919 6.18528C61.5848 6.46317 61.7367 6.47522 62.5172 6.30706C63.2751 6.14389 63.3837 6.14846 63.3802 6.34377C63.3779 6.46993 63.6601 6.57229 64.0288 6.57887C64.3877 6.58528 64.6825 6.52489 64.6839 6.44466C64.6854 6.36444 65.0536 6.30536 65.5023 6.31336C65.9509 6.32137 66.3193 6.25529 66.3209 6.16646C66.3225 6.07763 66.5251 6.04331 66.7714 6.09002C67.041 6.14124 67.2039 6.08403 67.1819 5.9459C67.1596 5.80718 67.4358 5.71115 67.8815 5.70247C68.5586 5.68932 68.5811 5.71233 68.161 5.98789C67.7396 6.26459 67.7643 6.28765 68.4778 6.28653C68.9034 6.28566 69.3501 6.24315 69.4704 6.19205C69.5908 6.14079 69.8687 6.1691 70.0878 6.25486C70.6242 6.46492 72.2822 6.16141 72.0605 5.8938C71.8643 5.65656 72.2663 5.64433 72.7538 5.87276C73.0069 5.99138 73.2943 5.99724 73.7652 5.89345C74.2774 5.78061 74.4631 5.79706 74.6047 5.96782C74.7043 6.08851 75.057 6.19212 75.3881 6.19803C76.2384 6.21321 77.8917 5.44229 77.6457 5.14521C77.5223 4.99593 77.5791 4.94515 77.7976 5.00975C77.9894 5.06657 78.0682 5.24176 77.9724 5.39923C77.7639 5.7413 78.0147 6.09902 78.4683 6.10712C78.6478 6.11032 78.7118 6.01298 78.6105 5.8908C78.4045 5.64185 79.2236 5.59257 79.5457 5.83454C79.6552 5.91674 79.9931 5.98318 80.2967 5.98232C80.6365 5.98124 80.6925 5.94956 80.4421 5.89986C80.2187 5.8553 80.0485 5.67689 80.064 5.50339C80.0917 5.19778 80.1015 5.19707 80.3679 5.48445C80.5194 5.64765 80.655 5.69545 80.6696 5.59066C80.6838 5.48586 80.8419 5.4433 81.0205 5.4961C81.1991 5.5489 81.3513 5.50624 81.359 5.40132C81.3673 5.28591 81.565 5.32898 81.8594 5.51035C82.2772 5.7676 82.3908 5.77998 82.6601 5.59759C82.8326 5.48074 82.9111 5.30516 82.8339 5.20763C82.7534 5.10537 82.8831 5.0661 83.1404 5.1149C83.6712 5.21586 84.033 5.59525 83.7715 5.7772C83.5283 5.94678 84.025 5.94996 85.1073 5.78587C85.682 5.69867 85.9178 5.57842 85.7977 5.43343C85.6974 5.31244 85.7579 5.21591 85.9314 5.21901C86.1054 5.22211 86.2465 5.2862 86.2452 5.36147C86.2398 5.66121 87.6338 5.46052 87.9356 5.11807C88.1915 4.82805 88.3082 4.80139 88.5482 4.97887C88.7108 5.09937 88.7589 5.31632 88.6541 5.46079C88.4881 5.6904 88.6019 5.71417 89.5559 5.64847C90.1565 5.60711 90.9077 5.57893 91.2258 5.58563C91.5436 5.59247 91.7196 5.53477 91.6169 5.45751C91.5138 5.38038 91.6464 5.32103 91.9113 5.32576C92.1759 5.33048 92.4531 5.41743 92.5267 5.51913C92.6312 5.66325 92.7804 5.66212 93.205 5.51402C93.5046 5.40965 94.0459 5.36416 94.408 5.41308C94.7704 5.46201 95.2768 5.41269 95.5334 5.30331C95.8198 5.18134 96.0761 5.16199 96.1975 5.25301C96.4664 5.45493 97.9546 5.4119 98.3851 5.18993C98.65 5.05328 98.5643 5.00681 98.0302 4.99727C97.3978 4.98598 97.3681 4.95219 97.7372 4.66375C98.0923 4.38631 98.1636 4.37766 98.2635 4.6002C98.3265 4.74183 98.6511 4.86245 98.9839 4.86839C99.3167 4.87433 99.7818 4.96916 100.017 5.07914C100.254 5.18973 101.322 5.31049 102.409 5.34961C104.094 5.41018 104.509 5.37132 105.319 5.07647C106.183 4.76215 107.388 4.72501 106.956 5.02603C106.855 5.09602 106.916 5.15591 107.092 5.15904C107.266 5.16216 107.485 5.08392 107.578 4.98533C107.712 4.84182 107.75 4.8425 107.768 4.98873C107.803 5.27445 109.982 5.25777 110.358 4.96886C110.614 4.77122 110.763 4.76133 111.159 4.91634C111.548 5.06861 111.68 5.0695 111.818 4.92126C111.939 4.7921 112.072 4.78514 112.258 4.89847C112.405 4.98791 113.039 5.06488 113.667 5.06953C114.633 5.0767 114.796 5.0303 114.721 4.77042C114.673 4.60132 114.87 4.38 115.159 4.2785C115.623 4.11578 115.659 4.13744 115.467 4.46464C115.344 4.6756 115.402 4.87974 115.602 4.9389C115.795 4.99589 115.954 4.97086 115.955 4.8832C115.957 4.79044 116.333 4.75805 116.854 4.80573C117.347 4.85071 117.75 4.89847 117.75 4.91159C117.75 4.92472 118.172 4.97399 118.688 5.02084C119.517 5.09604 119.606 5.06904 119.449 4.79019C119.285 4.49689 119.313 4.49171 119.842 4.71665C120.552 5.01851 121.175 5.03985 121.18 4.76257C121.182 4.6469 121.356 4.50805 121.567 4.45375C121.825 4.38744 121.881 4.43338 121.738 4.59409C121.581 4.77003 121.705 4.8363 122.208 4.84527C122.75 4.85494 122.814 4.8148 122.521 4.65024C122.225 4.48373 122.314 4.44592 122.974 4.45771C123.454 4.46628 123.795 4.55581 123.793 4.67294C123.788 4.94161 124.323 4.93847 124.564 4.66846C124.669 4.54997 124.943 4.46163 125.173 4.47201C125.5 4.4869 125.502 4.50532 125.182 4.55723C124.957 4.59378 124.772 4.68604 124.77 4.76247C124.769 4.84444 125.035 4.8422 125.423 4.75676C125.783 4.67725 126.077 4.66587 126.076 4.73151C126.071 5.01258 127.871 4.92433 128.903 4.59288C129.957 4.25423 130.002 4.2521 129.996 4.53915C129.99 4.91561 131.121 4.96674 131.601 4.61171C131.788 4.47338 131.941 4.44357 131.945 4.5449C131.949 4.65074 132.377 4.73499 132.965 4.74549C133.664 4.75797 133.929 4.70362 133.819 4.57062C133.612 4.3202 135.885 4.27615 136.215 4.52425C136.344 4.62036 136.62 4.6552 136.829 4.6013C137.106 4.52995 137.113 4.44953 136.855 4.30426C136.643 4.18507 136.624 4.0734 136.807 4.02618C136.975 3.9828 137.192 4.08689 137.287 4.25726L137.461 4.56706L138.435 4.27615C139.575 3.93553 139.939 3.91329 139.684 4.19938C139.583 4.31285 139.676 4.44056 139.889 4.48332C140.103 4.52624 139.991 4.56131 139.641 4.56133C139.253 4.56141 139.125 4.61456 139.312 4.69728C139.481 4.77194 140.093 4.80854 140.671 4.7786C141.508 4.73517 141.709 4.66012 141.657 4.41056C141.618 4.22545 141.758 4.11486 141.998 4.14075C142.223 4.16488 142.409 4.10256 142.414 4.00226C142.42 3.88082 142.526 3.89484 142.735 4.04446C142.906 4.1679 143.053 4.20334 143.06 4.12321C143.066 4.04309 143.194 4.06682 143.343 4.17584C143.492 4.28487 144.219 4.42129 144.96 4.47886C146.098 4.56761 146.41 4.53204 146.986 4.24876C147.603 3.94548 147.65 3.9415 147.482 4.20741C147.344 4.42614 147.462 4.51201 147.948 4.54403C148.972 4.61132 149.665 4.62019 150.722 4.57968C151.261 4.55895 152.142 4.53748 152.681 4.53207C153.574 4.52292 153.61 4.50386 153.085 4.31547C152.541 4.12001 152.545 4.10536 153.172 4.04344C153.599 4.00131 153.832 4.0491 153.829 4.17862C153.827 4.29399 154.028 4.34835 154.301 4.30639C154.563 4.26641 154.955 4.28625 155.172 4.35054C155.39 4.41498 156.167 4.46562 156.899 4.46322C157.632 4.46083 158.928 4.45669 159.781 4.45412C160.765 4.45112 161.333 4.38275 161.335 4.26708C161.337 4.15594 161.784 4.09272 162.48 4.10515C163.108 4.11636 163.621 4.19511 163.619 4.28C163.618 4.36489 163.771 4.3949 163.959 4.34647C164.147 4.29803 164.51 4.3404 164.766 4.44054C165.088 4.56652 165.511 4.58573 166.138 4.50268C166.637 4.43673 167.611 4.41953 168.302 4.46441C169.189 4.52198 169.493 4.49559 169.332 4.37497C169.192 4.2699 169.298 4.22511 169.607 4.25908C169.884 4.2894 170.349 4.18725 170.64 4.03196C171.162 3.75355 171.167 3.75407 170.962 4.07418C170.813 4.30687 170.894 4.40125 171.246 4.40754C171.517 4.41237 171.836 4.3479 171.956 4.26439C172.076 4.18074 172.38 4.15128 172.63 4.19879C172.882 4.24678 173.086 4.19687 173.088 4.08675C173.095 3.71043 174.057 3.72658 174.6 4.11214C175.036 4.42062 175.356 4.48441 176.425 4.47534C177.155 4.46911 177.798 4.37918 177.895 4.26959C177.991 4.16245 178.288 4.11654 178.556 4.16743C178.824 4.21832 179.271 4.18079 179.551 4.08408C179.988 3.93299 180.032 3.95376 179.864 4.2331C179.757 4.41166 179.712 4.55867 179.764 4.5596C180.096 4.56552 181.721 4.14296 181.962 3.98836C182.145 3.87039 182.175 3.94417 182.043 4.18839L181.833 4.57539L184.688 4.57033C186.258 4.56742 187.69 4.50267 187.87 4.42621C188.049 4.34975 188.289 4.04471 188.403 3.74837C188.517 3.45202 188.795 3.1853 189.02 3.15577C189.336 3.11443 189.351 3.19246 189.086 3.49354C188.896 3.70872 188.812 3.9185 188.9 3.95961C188.988 4.00071 188.911 4.15443 188.728 4.30103C188.472 4.50772 188.51 4.56983 188.898 4.57676C189.174 4.58167 189.4 4.52414 189.401 4.44888C189.403 4.37362 189.661 4.3238 189.975 4.3383C190.288 4.35266 190.861 4.32363 191.247 4.27391C191.668 4.21971 192.124 4.26155 192.388 4.37875C193.098 4.69462 194.097 4.62929 194.519 4.23939L194.907 3.88155L194.927 4.28795C194.946 4.6923 194.955 4.69407 196.823 4.65739C197.856 4.63716 199.388 4.6295 200.229 4.64042C201.501 4.657 201.795 4.60827 201.986 4.3489C202.19 4.07226 202.25 4.06529 202.516 4.28643C202.751 4.48044 202.957 4.50427 203.455 4.39467C203.893 4.29817 204.092 4.30143 204.09 4.40513C204.088 4.48813 204.307 4.56003 204.577 4.56484C204.846 4.56964 205.065 4.63673 205.064 4.71389C205.06 4.93749 211.153 4.90401 211.804 4.67678C212.255 4.51939 212.38 4.52 212.496 4.68039C212.6 4.82333 212.869 4.78888 213.496 4.55233C213.968 4.3743 214.152 4.34154 213.905 4.47954C213.349 4.79045 213.677 4.98102 214.357 4.74236C214.764 4.59949 214.859 4.6041 214.865 4.76717C214.869 4.90178 215.029 4.87822 215.352 4.6949C215.617 4.54496 215.929 4.46752 216.047 4.52259C216.165 4.5778 216.471 4.51278 216.726 4.37815C217.067 4.1988 217.236 4.18313 217.359 4.3197C217.451 4.42216 217.698 4.4702 217.907 4.42623C218.117 4.38241 217.936 4.46789 217.505 4.61617C217 4.79012 216.849 4.92356 217.081 4.99204C217.279 5.05043 217.768 4.93733 218.168 4.7405C218.941 4.36049 219.948 4.2632 219.65 4.59727C219.477 4.79174 219.971 5.13146 220.439 5.13982C220.57 5.14216 220.745 4.99748 220.827 4.81847C220.975 4.49996 220.983 4.49951 221.199 4.79841C221.401 5.07587 221.652 5.1053 223.928 5.11748C225.307 5.12487 226.472 5.1178 226.517 5.10183C226.765 5.01362 229.487 5.08789 230.145 5.20075C230.638 5.28526 231.09 5.27247 231.395 5.16557C231.712 5.05435 231.945 5.04948 232.089 5.15112C232.489 5.433 233.729 5.50356 234.172 5.26972C234.533 5.0792 234.511 5.05866 234.023 5.13152C233.668 5.18455 233.452 5.14758 233.454 5.03381C233.46 4.70752 234.686 4.80907 234.889 5.15265C235.047 5.42191 235.131 5.4396 235.403 5.26106C235.582 5.14387 235.729 5.12301 235.731 5.21481C235.734 5.46451 236.672 5.59434 237.367 5.44115C237.719 5.36353 238.054 5.36295 238.157 5.43978C238.37 5.59999 240.983 5.6052 241.599 5.44652C241.889 5.37203 241.957 5.38914 241.801 5.49769C241.65 5.60296 241.834 5.66343 242.319 5.66801C243.042 5.67479 245.353 5.83539 245.352 5.87886C245.352 5.89053 246.049 5.93288 246.901 5.97319C247.753 6.01349 248.451 6.00422 248.453 5.9526C248.454 5.90112 249.116 5.86478 249.923 5.87219C251.003 5.88184 251.389 5.9414 251.386 6.09762C251.384 6.23633 251.604 6.28797 252.021 6.24683C252.372 6.2121 252.727 6.26001 252.809 6.35326C252.892 6.44651 252.973 6.40346 252.99 6.2577C253.018 6.01658 253.067 6.0141 253.529 6.23085C254.008 6.45535 254.338 6.4926 256.765 6.59677C257.303 6.61996 258.061 6.68951 258.448 6.75142C258.835 6.81348 259.243 6.79991 259.356 6.72153C259.486 6.63091 259.845 6.6325 260.341 6.72583C260.884 6.82818 261.17 6.82059 261.283 6.70063C261.373 6.60593 261.455 6.64344 261.467 6.78415C261.478 6.92487 261.598 7.04431 261.732 7.04978C262.762 7.09135 264.685 7.29845 265.153 7.41797C265.616 7.5364 265.724 7.5017 265.732 7.23018C265.741 6.96158 265.804 6.94052 266.056 7.12142C266.313 7.3062 266.37 7.3094 266.377 7.13926C266.382 7.02568 266.478 6.97589 266.59 7.02852C266.703 7.08116 267.07 7.06365 267.407 6.98941C268.112 6.83391 268.132 6.8604 267.692 7.35999C267.438 7.648 267.468 7.73024 267.829 7.73669C268.083 7.74123 268.379 7.68377 268.486 7.60894C268.705 7.45615 269.683 7.5969 270.017 7.82931C270.137 7.91257 270.631 8.0117 271.114 8.04921C271.597 8.08688 272.201 8.21495 272.455 8.33403C272.827 8.50831 273.042 8.51813 273.556 8.38419C273.908 8.29271 274.197 8.17385 274.198 8.12002C274.2 7.9854 274.87 8.05965 275.745 8.29136C276.302 8.43874 276.477 8.44362 276.479 8.31132C276.481 8.20747 276.743 8.24877 277.132 8.41432C278.095 8.82415 278.317 8.5805 277.558 7.94525C277.047 7.51678 276.966 7.30538 277.208 7.03131C277.424 6.78597 277.409 6.6557 277.159 6.61388C276.959 6.58039 276.658 6.38696 276.492 6.18395C276.326 5.98109 275.908 5.77711 275.565 5.7307C275.221 5.6843 274.869 5.561 274.783 5.45674C274.611 5.24941 268.637 4.29257 268.1 4.38627C268.03 4.39844 267.86 4.32422 267.724 4.2214C267.587 4.11872 266.105 3.89515 264.432 3.72477C262.759 3.55425 261.023 3.36992 260.575 3.31494C260.127 3.25996 258.954 3.16402 257.968 3.10192C256.982 3.03966 255.891 2.94636 255.544 2.8945C255.197 2.84249 254.097 2.76609 253.099 2.72464C252.101 2.68305 250.919 2.59934 250.471 2.53853C250.023 2.47772 248.409 2.38311 246.884 2.32816C245.359 2.27322 244.112 2.21885 244.112 2.20747C244.112 2.19609 243.489 2.15024 242.727 2.1057C241.877 2.05611 241.34 2.08561 241.338 2.18174C241.336 2.28807 241.19 2.28165 240.883 2.16179C240.635 2.06442 239.242 1.95303 237.787 1.91436C236.333 1.87556 235.143 1.80735 235.144 1.76272C235.145 1.71823 232.76 1.62166 229.844 1.54817C226.928 1.47481 224.323 1.40786 224.053 1.39941C223.784 1.39096 222.609 1.39041 221.442 1.39803C220.275 1.40565 218.954 1.36441 218.506 1.30637C218.059 1.24833 217.214 1.23997 216.63 1.28761C216.046 1.33539 215.569 1.32017 215.57 1.25365C215.571 1.18714 215.168 1.162 214.673 1.19767C213.406 1.289 201.952 1.10875 200.488 0.974493C199.821 0.913269 199.2 0.895043 199.109 0.933827ZM227.911 4.42973C227.913 4.48739 227.704 4.4946 227.447 4.44581C227.19 4.39701 227.066 4.25998 227.171 4.14134C227.327 3.96598 227.414 3.963 227.636 4.12527C227.785 4.23504 227.909 4.37192 227.911 4.42973ZM165.298 3.09763C165.31 3.15796 165.368 3.32357 165.426 3.4654C165.483 3.60723 165.415 3.68903 165.273 3.64726C164.886 3.53281 164.64 2.97645 164.979 2.9825C165.141 2.98541 165.285 3.03728 165.298 3.09763ZM203.123 3.72779C203.122 3.76323 202.974 3.83004 202.794 3.87643C202.613 3.92282 202.467 3.89117 202.469 3.80628C202.47 3.72139 202.618 3.65444 202.798 3.65764C202.977 3.66085 203.123 3.69235 203.123 3.72779ZM190.225 4.01682C190.335 4.09903 190.269 4.1635 190.079 4.16011C189.889 4.15672 189.734 4.08831 189.736 4.00808C189.737 3.92786 189.803 3.86338 189.882 3.86479C189.961 3.86621 190.116 3.93462 190.225 4.01682ZM161.671 3.71733C161.67 3.75277 161.522 3.81958 161.342 3.86597C161.162 3.91236 161.015 3.88071 161.017 3.79582C161.018 3.71093 161.167 3.64398 161.346 3.64718C161.525 3.65038 161.672 3.68189 161.671 3.71733ZM163.54 3.77447C163.431 3.82097 163.149 3.82119 162.915 3.77484C162.655 3.72366 162.733 3.69047 163.113 3.69026C163.457 3.69012 163.649 3.72798 163.54 3.77447ZM164.769 3.8542C164.879 3.9364 164.731 3.99942 164.441 3.99424C164.15 3.98905 164.004 3.92079 164.117 3.84255C164.229 3.76431 164.377 3.70129 164.446 3.70252C164.514 3.70374 164.66 3.772 164.769 3.8542ZM168.196 3.8983C168.194 3.96919 167.862 4.05853 167.458 4.09683C166.747 4.16396 166.744 4.15952 167.359 3.96609C168.102 3.73263 168.199 3.72472 168.196 3.8983ZM156.448 3.76999C156.447 3.80544 156.299 3.87224 156.119 3.91863C155.939 3.96502 155.792 3.93337 155.794 3.84848C155.795 3.76359 155.943 3.69664 156.123 3.69984C156.302 3.70305 156.449 3.73455 156.448 3.76999ZM141.347 3.6701C141.238 3.71659 140.956 3.71682 140.722 3.67047C140.462 3.61929 140.54 3.5861 140.92 3.58589C141.264 3.58575 141.456 3.62361 141.347 3.6701ZM144.912 4.25667C144.806 4.37106 144.729 4.33511 144.717 4.16491C144.705 4.01092 144.784 3.92624 144.891 3.9766C144.999 4.02696 145.008 4.15304 144.912 4.25667ZM259.542 6.34855C259.535 6.71553 259.023 6.69004 258.961 6.31965C258.926 6.11024 259.037 5.99666 259.223 6.05163C259.4 6.10411 259.544 6.2377 259.542 6.34855ZM123.968 4.00125C124.077 4.08345 124.011 4.14793 123.821 4.14454C123.631 4.14115 123.477 4.07273 123.478 3.99251C123.48 3.91229 123.546 3.84781 123.625 3.84922C123.704 3.85064 123.858 3.91905 123.968 4.00125ZM141.964 4.40291C142.061 4.52094 142.273 4.61984 142.433 4.6227C142.902 4.63107 142.772 4.37561 142.257 4.27785C141.942 4.21795 141.845 4.2594 141.964 4.40291ZM269.301 6.68284C268.933 6.87265 268.951 6.93134 269.418 7.05683C270.196 7.26654 270.139 7.53806 269.359 7.3365C269.025 7.25029 268.635 7.22465 268.492 7.27944C268.349 7.33423 268.331 7.26066 268.452 7.11575C268.573 6.97098 268.673 6.75932 268.676 6.64555C268.678 6.53178 268.917 6.44297 269.208 6.44817C269.656 6.45616 269.671 6.49231 269.301 6.68284ZM106.4 4.15277C106.293 4.26716 106.217 4.23122 106.204 4.06101C106.193 3.90702 106.271 3.82234 106.379 3.8727C106.486 3.92306 106.496 4.04915 106.4 4.15277ZM263.126 6.69574C263.125 6.73118 262.977 6.79799 262.797 6.84438C262.617 6.89077 262.47 6.85912 262.472 6.77423C262.473 6.68934 262.621 6.62239 262.801 6.62559C262.98 6.62879 263.127 6.66029 263.126 6.69574ZM264.103 6.79475C264.102 6.87497 263.954 6.93799 263.774 6.93478C263.595 6.93158 263.449 6.86332 263.451 6.7831C263.452 6.70288 263.6 6.63986 263.78 6.64306C263.959 6.64627 264.105 6.71453 264.103 6.79475ZM105.522 4.25558C105.519 4.41603 105.384 4.54492 105.221 4.54202C105.058 4.53912 105.005 4.40684 105.101 4.24807C105.198 4.0893 105.333 3.9604 105.402 3.96163C105.471 3.96286 105.525 4.09514 105.522 4.25558ZM107.48 4.29053C107.478 4.37075 107.413 4.43524 107.333 4.43382C107.254 4.43241 107.1 4.364 106.99 4.28179C106.881 4.19959 106.947 4.13511 107.137 4.1385C107.327 4.14189 107.481 4.21031 107.48 4.29053ZM104.434 4.5554C104.328 4.66979 104.251 4.63384 104.239 4.46364C104.227 4.30965 104.306 4.22497 104.413 4.27533C104.521 4.32569 104.53 4.45177 104.434 4.5554ZM273.547 8.03326C273.545 8.14032 273.323 8.2239 273.054 8.2191C272.538 8.20988 272.42 8.0788 272.787 7.92252C273.15 7.76793 273.55 7.82628 273.547 8.03326ZM60.2655 6.37556C60.1455 6.45892 60.117 6.55981 60.2018 6.59956C60.2866 6.6393 60.4448 6.57209 60.5534 6.45015C60.7785 6.19708 60.5914 6.14851 60.2655 6.37556ZM28.165 7.72117C27.9291 7.82157 27.7769 7.82746 27.7786 7.73616C27.7801 7.65316 27.8799 7.54333 28.0006 7.49208C28.121 7.44068 28.2951 7.43387 28.387 7.47709C28.479 7.52017 28.3791 7.63 28.165 7.72117ZM9.81707 8.29255C9.81653 8.32274 9.55769 8.43309 9.24151 8.53761C8.72078 8.70967 8.70945 8.70436 9.11915 8.48027C9.54995 8.24488 9.81921 8.17251 9.81707 8.29255ZM14.6096 9.05248C14.5497 9.3727 14.0395 9.45142 14.045 9.13972C14.0481 8.96571 14.3414 8.75588 14.5757 8.76006C14.6243 8.76093 14.6396 8.89252 14.6096 9.05248Z" fill="#FFE141"/>
</svg>
