<svg width="19" height="19" viewBox="0 0 19 19" fill="none" xmlns="http://www.w3.org/2000/svg">
<path d="M15.7189 17.6633C15.8719 18.4339 15.0299 19.05 14.3409 18.6647L9.93994 16.3548C9.67194 16.2003 9.32794 16.2003 9.05994 16.3548L4.65894 18.6647C3.96994 19.05 3.12795 18.4339 3.28095 17.6633L4.12294 12.7355C4.16094 12.4274 4.08494 12.1194 3.85494 11.8886L0.295947 8.3852C-0.278053 7.80773 0.0279423 6.84495 0.831942 6.72905L5.69194 6.03671C5.99794 5.99807 6.26595 5.80491 6.41895 5.49788L8.60094 1.03166C8.94494 0.299666 9.97794 0.299666 10.3229 1.03166L12.5429 5.49788C12.6959 5.76729 12.9639 5.99807 13.2699 6.03671L18.1679 6.76768C18.9719 6.88358 19.2779 7.84636 18.7039 8.42383L15.1449 11.9272C14.9149 12.158 14.8009 12.4661 14.8769 12.7741L15.7189 17.6633Z" fill="#FFDB1C"/>
</svg>
